<?xml version="1.0" encoding="UTF-8" standalone="no"?>
<!DOCTYPE svg PUBLIC "-//W3C//DTD SVG 1.1//EN"
 "http://www.w3.org/Graphics/SVG/1.1/DTD/svg11.dtd">
<!-- Generated by graphviz version 14.1.5 (20260411.2331)
 -->
<!-- Title: LEGEND Pages: 1 -->
<svg width="670pt" height="1108pt"
 viewBox="0.00 0.00 670.00 1108.00" xmlns="http://www.w3.org/2000/svg" xmlns:xlink="http://www.w3.org/1999/xlink">
<g id="graph0" class="graph" transform="scale(1 1) rotate(0) translate(28.8 1079.55)">
<title>LEGEND</title>
<polygon fill="white" stroke="none" points="-28.8,28.8 -28.8,-1079.55 641.56,-1079.55 641.56,28.8 -28.8,28.8"/>
<text xml:space="preserve" text-anchor="middle" x="306.38" y="-1031.55" font-family="Helvetica,sans-Serif" font-size="16.00">OPM notation (ISO/PAS 19450) as used in these DOT files</text>
<g id="clust1" class="cluster">
<title>cluster_entities</title>
<path fill="#fafafa" stroke="#9e9e9e" d="M104.59,-8C104.59,-8 169.59,-8 169.59,-8 175.59,-8 181.59,-14 181.59,-20 181.59,-20 181.59,-219 181.59,-219 181.59,-225 175.59,-231 169.59,-231 169.59,-231 104.59,-231 104.59,-231 98.59,-231 92.59,-225 92.59,-219 92.59,-219 92.59,-20 92.59,-20 92.59,-14 98.59,-8 104.59,-8"/>
<text xml:space="preserve" text-anchor="middle" x="137.09" y="-211.8" font-family="Helvetica,sans-Serif" font-size="16.00">Entities</text>
</g>
<g id="clust2" class="cluster">
<title>cluster_links</title>
<path fill="#fafafa" stroke="#9e9e9e" d="M97.09,-239C97.09,-239 578.51,-239 578.51,-239 584.51,-239 590.51,-245 590.51,-251 590.51,-251 590.51,-522 590.51,-522 590.51,-528 584.51,-534 578.51,-534 578.51,-534 97.09,-534 97.09,-534 91.09,-534 85.09,-528 85.09,-522 85.09,-522 85.09,-251 85.09,-251 85.09,-245 91.09,-239 97.09,-239"/>
<text xml:space="preserve" text-anchor="middle" x="337.8" y="-514.8" font-family="Helvetica,sans-Serif" font-size="16.00">Procedural &amp; structural links</text>
</g>
<g id="clust3" class="cluster">
<title>cluster_origin</title>
<path fill="#fafafa" stroke="#9e9e9e" d="M20,-542C20,-542 592.76,-542 592.76,-542 598.76,-542 604.76,-548 604.76,-554 604.76,-554 604.76,-1004 604.76,-1004 604.76,-1010 598.76,-1016 592.76,-1016 592.76,-1016 20,-1016 20,-1016 14,-1016 8,-1010 8,-1004 8,-1004 8,-554 8,-554 8,-548 14,-542 20,-542"/>
<text xml:space="preserve" text-anchor="middle" x="306.38" y="-996.8" font-family="Helvetica,sans-Serif" font-size="16.00">Colour conventions in these files</text>
</g>
<!-- Obj -->
<g id="node1" class="node">
<title>Obj</title>
<polygon fill="#e3f2fd" stroke="black" points="164.09,-52 110.09,-52 110.09,-16 164.09,-16 164.09,-52"/>
<text xml:space="preserve" text-anchor="middle" x="137.09" y="-30.3" font-family="Helvetica,sans-Serif" font-size="11.00">Object</text>
</g>
<!-- Proc -->
<g id="node2" class="node">
<title>Proc</title>
<ellipse fill="#bbdefb" stroke="black" cx="137.09" cy="-106" rx="34.29" ry="18"/>
<text xml:space="preserve" text-anchor="middle" x="137.09" y="-102.3" font-family="Helvetica,sans-Serif" font-size="11.00">Process</text>
</g>
<!-- St -->
<g id="node3" class="node">
<title>St</title>
<path fill="#fff3e0" stroke="black" d="M161.59,-196C161.59,-196 112.59,-196 112.59,-196 106.59,-196 100.59,-190 100.59,-184 100.59,-184 100.59,-172 100.59,-172 100.59,-166 106.59,-160 112.59,-160 112.59,-160 161.59,-160 161.59,-160 167.59,-160 173.59,-166 173.59,-172 173.59,-172 173.59,-184 173.59,-184 173.59,-190 167.59,-196 161.59,-196"/>
<text xml:space="preserve" text-anchor="middle" x="137.09" y="-174.3" font-family="Helvetica,sans-Serif" font-size="11.00">Object state</text>
</g>
<!-- A1 -->
<g id="node4" class="node">
<title>A1</title>
<polygon fill="#fff8e1" stroke="black" points="181.09,-283 93.09,-283 93.09,-247 181.09,-247 181.09,-283"/>
<text xml:space="preserve" text-anchor="middle" x="137.09" y="-261.3" font-family="Helvetica,sans-Serif" font-size="11.00">Agent (human)</text>
</g>
<!-- P1 -->
<g id="node5" class="node">
<title>P1</title>
<ellipse fill="#bbdefb" stroke="black" cx="393.22" cy="-337" rx="34.29" ry="18"/>
<text xml:space="preserve" text-anchor="middle" x="393.22" y="-333.3" font-family="Helvetica,sans-Serif" font-size="11.00">Process</text>
</g>
<!-- A1&#45;&gt;P1 -->
<g id="edge1" class="edge">
<title>A1&#45;&gt;P1</title>
<path fill="none" stroke="black" d="M181.27,-276.34C220.23,-286.68 279.07,-302.58 329.93,-317.5 338.08,-319.89 346.8,-322.55 355.06,-325.12"/>
<ellipse fill="black" stroke="black" cx="359.15" cy="-326.41" rx="4" ry="4"/>
<text xml:space="preserve" text-anchor="middle" x="308.56" y="-319.45" font-family="Helvetica,sans-Serif" font-size="9.00">handles</text>
</g>
<!-- R1 -->
<g id="node8" class="node">
<title>R1</title>
<polygon fill="#e8f5e9" stroke="black" points="582.51,-355 523.76,-355 523.76,-319 582.51,-319 582.51,-355"/>
<text xml:space="preserve" text-anchor="middle" x="553.13" y="-333.3" font-family="Helvetica,sans-Serif" font-size="11.00">Resultee</text>
</g>
<!-- P1&#45;&gt;R1 -->
<g id="edge4" class="edge">
<title>P1&#45;&gt;R1</title>
<path fill="none" stroke="black" d="M427.71,-337C452.36,-337 485.98,-337 512.06,-337"/>
<polygon fill="black" stroke="black" points="511.94,-340.5 521.94,-337 511.94,-333.5 511.94,-340.5"/>
<text xml:space="preserve" text-anchor="middle" x="468.51" y="-338.95" font-family="Helvetica,sans-Serif" font-size="9.00">yields</text>
</g>
<!-- I1 -->
<g id="node6" class="node">
<title>I1</title>
<polygon fill="#e3f2fd" stroke="black" points="170.59,-355 103.59,-355 103.59,-319 170.59,-319 170.59,-355"/>
<text xml:space="preserve" text-anchor="middle" x="137.09" y="-333.3" font-family="Helvetica,sans-Serif" font-size="11.00">Instrument</text>
</g>
<!-- I1&#45;&gt;P1 -->
<g id="edge2" class="edge">
<title>I1&#45;&gt;P1</title>
<path fill="none" stroke="black" d="M171.05,-337C216.79,-337 299.53,-337 349.82,-337"/>
<ellipse fill="none" stroke="black" cx="354.01" cy="-337" rx="4" ry="4"/>
<text xml:space="preserve" text-anchor="middle" x="308.56" y="-338.95" font-family="Helvetica,sans-Serif" font-size="9.00">requires</text>
</g>
<!-- C1 -->
<g id="node7" class="node">
<title>C1</title>
<polygon fill="#e3f2fd" stroke="black" points="171.34,-427 102.84,-427 102.84,-391 171.34,-391 171.34,-427"/>
<text xml:space="preserve" text-anchor="middle" x="137.09" y="-405.3" font-family="Helvetica,sans-Serif" font-size="11.00">Consumee</text>
</g>
<!-- C1&#45;&gt;P1 -->
<g id="edge3" class="edge">
<title>C1&#45;&gt;P1</title>
<path fill="none" stroke="black" d="M171.84,-400.35C210.26,-390.4 274.84,-373.3 329.93,-357 337.32,-354.81 345.17,-352.38 352.72,-349.99"/>
<polygon fill="black" stroke="black" points="353.57,-353.39 362.03,-347 351.43,-346.72 353.57,-353.39"/>
<text xml:space="preserve" text-anchor="middle" x="308.56" y="-371.01" font-family="Helvetica,sans-Serif" font-size="9.00">consumes</text>
</g>
<!-- W1 -->
<g id="node9" class="node">
<title>W1</title>
<polygon fill="#bbdefb" stroke="black" stroke-width="2" points="164.09,-499 110.09,-499 110.09,-463 164.09,-463 164.09,-499"/>
<text xml:space="preserve" text-anchor="middle" x="137.09" y="-477.3" font-family="Helvetica,sans-Serif" font-size="11.00">Whole</text>
</g>
<!-- Pa -->
<g id="node10" class="node">
<title>Pa</title>
<polygon fill="#e3f2fd" stroke="black" points="420.22,-499 366.22,-499 366.22,-463 420.22,-463 420.22,-499"/>
<text xml:space="preserve" text-anchor="middle" x="393.22" y="-477.3" font-family="Helvetica,sans-Serif" font-size="11.00">Part</text>
</g>
<!-- W1&#45;&gt;Pa -->
<g id="edge5" class="edge">
<title>W1&#45;&gt;Pa</title>
<path fill="none" stroke="black" d="M164.33,-481C209.13,-481 300.59,-481 353,-481"/>
<polygon fill="black" stroke="black" points="352.84,-481 358.84,-477 364.84,-481 358.84,-485 352.84,-481"/>
<text xml:space="preserve" text-anchor="middle" x="308.56" y="-482.95" font-family="Helvetica,sans-Serif" font-size="9.00">consists of</text>
</g>
<!-- Env -->
<g id="node11" class="node">
<title>Env</title>
<polygon fill="#f3e5f5" stroke="black" stroke-dasharray="5,2" points="227.59,-586 46.59,-586 46.59,-550 227.59,-550 227.59,-586"/>
<text xml:space="preserve" text-anchor="middle" x="137.09" y="-571.05" font-family="Helvetica,sans-Serif" font-size="11.00">Environmental</text>
<text xml:space="preserve" text-anchor="middle" x="137.09" y="-557.55" font-family="Helvetica,sans-Serif" font-size="11.00">(we own the prompt, not the thing)</text>
</g>
<!-- Core -->
<g id="node12" class="node">
<title>Core</title>
<ellipse fill="#bbdefb" stroke="black" cx="137.09" cy="-640" rx="67.95" ry="18"/>
<text xml:space="preserve" text-anchor="middle" x="137.09" y="-636.3" font-family="Helvetica,sans-Serif" font-size="11.00">Origin core process</text>
</g>
<!-- Agt -->
<g id="node13" class="node">
<title>Agt</title>
<ellipse fill="#f8bbd0" stroke="black" stroke-width="2" cx="137.09" cy="-719" rx="121.09" ry="24.75"/>
<text xml:space="preserve" text-anchor="middle" x="137.09" y="-722.05" font-family="Helvetica,sans-Serif" font-size="11.00">Agent process</text>
<text xml:space="preserve" text-anchor="middle" x="137.09" y="-708.55" font-family="Helvetica,sans-Serif" font-size="11.00">(decides inside the farmer&#39;s box)</text>
</g>
<!-- Aut -->
<g id="node14" class="node">
<title>Aut</title>
<ellipse fill="#d1c4e9" stroke="black" cx="137.09" cy="-804" rx="118.44" ry="24.75"/>
<text xml:space="preserve" text-anchor="middle" x="137.09" y="-807.05" font-family="Helvetica,sans-Serif" font-size="11.00">Authoring / review process</text>
<text xml:space="preserve" text-anchor="middle" x="137.09" y="-793.55" font-family="Helvetica,sans-Serif" font-size="11.00">(model drafts, farmer approves)</text>
</g>
<!-- Fin -->
<g id="node15" class="node">
<title>Fin</title>
<path fill="#ffe0b2" stroke="black" d="M157.84,-905C157.84,-905 116.34,-905 116.34,-905 110.34,-905 104.34,-899 104.34,-893 104.34,-893 104.34,-881 104.34,-881 104.34,-875 110.34,-869 116.34,-869 116.34,-869 157.84,-869 157.84,-869 163.84,-869 169.84,-875 169.84,-881 169.84,-881 169.84,-893 169.84,-893 169.84,-899 163.84,-905 157.84,-905"/>
<path fill="none" stroke="black" d="M161.84,-909C161.84,-909 112.34,-909 112.34,-909 106.34,-909 100.34,-903 100.34,-897 100.34,-897 100.34,-877 100.34,-877 100.34,-871 106.34,-865 112.34,-865 112.34,-865 161.84,-865 161.84,-865 167.84,-865 173.84,-871 173.84,-877 173.84,-877 173.84,-897 173.84,-897 173.84,-903 167.84,-909 161.84,-909"/>
<text xml:space="preserve" text-anchor="middle" x="137.09" y="-883.3" font-family="Helvetica,sans-Serif" font-size="11.00">Final state</text>
</g>
<!-- Sx -->
<g id="node16" class="node">
<title>Sx</title>
<path fill="#fff3e0" stroke="black" stroke-width="2.4" d="M158.59,-981C158.59,-981 115.59,-981 115.59,-981 109.59,-981 103.59,-975 103.59,-969 103.59,-969 103.59,-957 103.59,-957 103.59,-951 109.59,-945 115.59,-945 115.59,-945 158.59,-945 158.59,-945 164.59,-945 170.59,-951 170.59,-957 170.59,-957 170.59,-969 170.59,-969 170.59,-975 164.59,-981 158.59,-981"/>
<text xml:space="preserve" text-anchor="middle" x="137.09" y="-959.3" font-family="Helvetica,sans-Serif" font-size="11.00">Initial state</text>
</g>
<!-- Px -->
<g id="node17" class="node">
<title>Px</title>
<ellipse fill="#bbdefb" stroke="black" cx="393.22" cy="-963" rx="34.29" ry="18"/>
<text xml:space="preserve" text-anchor="middle" x="393.22" y="-959.3" font-family="Helvetica,sans-Serif" font-size="11.00">Process</text>
</g>
<!-- Sx&#45;&gt;Px -->
<g id="edge6" class="edge">
<title>Sx&#45;&gt;Px</title>
<path fill="none" stroke="black" d="M171.58,-963C216.62,-963 296.87,-963 347.17,-963"/>
<polygon fill="black" stroke="black" points="347.15,-966.5 357.15,-963 347.15,-959.5 347.15,-966.5"/>
<text xml:space="preserve" text-anchor="middle" x="308.56" y="-964.95" font-family="Helvetica,sans-Serif" font-size="9.00">from</text>
</g>
<!-- Sy -->
<g id="node18" class="node">
<title>Sy</title>
<path fill="#c8e6c9" stroke="black" d="M584.76,-981C584.76,-981 521.51,-981 521.51,-981 515.51,-981 509.51,-975 509.51,-969 509.51,-969 509.51,-957 509.51,-957 509.51,-951 515.51,-945 521.51,-945 521.51,-945 584.76,-945 584.76,-945 590.76,-945 596.76,-951 596.76,-957 596.76,-957 596.76,-969 596.76,-969 596.76,-975 590.76,-981 584.76,-981"/>
<text xml:space="preserve" text-anchor="middle" x="553.13" y="-959.3" font-family="Helvetica,sans-Serif" font-size="11.00">Resulting state</text>
</g>
<!-- Px&#45;&gt;Sy -->
<g id="edge7" class="edge">
<title>Px&#45;&gt;Sy</title>
<path fill="none" stroke="black" stroke-dasharray="1,5" d="M427.71,-963C448,-963 474.37,-963 497.61,-963"/>
<polygon fill="black" stroke="black" points="497.56,-966.5 507.56,-963 497.56,-959.5 497.56,-966.5"/>
<text xml:space="preserve" text-anchor="middle" x="468.51" y="-964.95" font-family="Helvetica,sans-Serif" font-size="9.00">to</text>
</g>
</g>
</svg>
