<?xml version="1.0" encoding="UTF-8" standalone="no"?>
<!DOCTYPE svg PUBLIC "-//W3C//DTD SVG 1.1//EN"
 "http://www.w3.org/Graphics/SVG/1.1/DTD/svg11.dtd">
<!-- Generated by graphviz version 14.1.5 (20260411.2331)
 -->
<!-- Title: SD1 Pages: 1 -->
<svg width="1069pt" height="1016pt"
 viewBox="0.00 0.00 1069.00 1016.00" xmlns="http://www.w3.org/2000/svg" xmlns:xlink="http://www.w3.org/1999/xlink">
<g id="graph0" class="graph" transform="scale(1 1) rotate(0) translate(28.8 987.55)">
<title>SD1</title>
<polygon fill="white" stroke="none" points="-28.8,28.8 -28.8,-987.55 1040.3,-987.55 1040.3,28.8 -28.8,28.8"/>
<text xml:space="preserve" text-anchor="middle" x="505.75" y="-939.55" font-family="Helvetica,sans-Serif" font-size="16.00">SD1 — Sharing in&#45;zoomed</text>
<g id="clust2" class="cluster">
<title>cluster_Sharing</title>
<path fill="#e3f2fd" stroke="#1565c0" stroke-width="2" d="M242.75,-8C242.75,-8 860.75,-8 860.75,-8 866.75,-8 872.75,-14 872.75,-20 872.75,-20 872.75,-837.75 872.75,-837.75 872.75,-843.75 866.75,-849.75 860.75,-849.75 860.75,-849.75 242.75,-849.75 242.75,-849.75 236.75,-849.75 230.75,-843.75 230.75,-837.75 230.75,-837.75 230.75,-20 230.75,-20 230.75,-14 236.75,-8 242.75,-8"/>
<text xml:space="preserve" text-anchor="middle" x="551.75" y="-832.45" font-family="Helvetica,sans-Serif" font-size="14.00">Sharing</text>
</g>
<!-- Farmer -->
<g id="node1" class="node">
<title>Farmer</title>
<polygon fill="#fff8e1" stroke="black" points="732.75,-925.75 678.75,-925.75 678.75,-889.75 732.75,-889.75 732.75,-925.75"/>
<text xml:space="preserve" text-anchor="middle" x="705.75" y="-904.05" font-family="Helvetica,sans-Serif" font-size="11.00">Farmer</text>
</g>
<!-- Capturing -->
<g id="node5" class="node">
<title>Capturing</title>
<ellipse fill="#bbdefb" stroke="black" cx="349.75" cy="-762.25" rx="39.43" ry="18"/>
<text xml:space="preserve" text-anchor="middle" x="349.75" y="-758.55" font-family="Helvetica,sans-Serif" font-size="11.00">Capturing</text>
</g>
<!-- Farmer&#45;&gt;Capturing -->
<g id="edge25" class="edge">
<title>Farmer&#45;&gt;Capturing</title>
<path fill="none" stroke="#222222" d="M678.39,-898.18C654.79,-890.61 619.89,-879.03 590,-867.5 515.77,-838.86 430.76,-800.66 384.4,-779.35"/>
<ellipse fill="#222222" stroke="#222222" cx="380.56" cy="-777.59" rx="4" ry="4"/>
<text xml:space="preserve" text-anchor="middle" x="603.88" y="-859.9" font-family="Helvetica,sans-Serif" font-size="8.00">handles</text>
</g>
<!-- Consenting -->
<g id="node9" class="node">
<title>Consenting</title>
<ellipse fill="#bbdefb" stroke="black" cx="466.75" cy="-451.25" rx="44.1" ry="18"/>
<text xml:space="preserve" text-anchor="middle" x="466.75" y="-447.55" font-family="Helvetica,sans-Serif" font-size="11.00">Consenting</text>
</g>
<!-- Farmer&#45;&gt;Consenting -->
<g id="edge26" class="edge">
<title>Farmer&#45;&gt;Consenting</title>
<path fill="none" stroke="#222222" d="M691.75,-889.37C672.38,-863.5 639.75,-812.61 639.75,-763.25 639.75,-763.25 639.75,-763.25 639.75,-528 639.75,-474.95 570.65,-458.7 519.8,-453.92"/>
<ellipse fill="#222222" stroke="#222222" cx="515.34" cy="-453.55" rx="4" ry="4"/>
<text xml:space="preserve" text-anchor="middle" x="653.62" y="-642.9" font-family="Helvetica,sans-Serif" font-size="8.00">handles</text>
</g>
<!-- Revoking -->
<g id="node14" class="node">
<title>Revoking</title>
<ellipse fill="#bbdefb" stroke="black" cx="404.75" cy="-117" rx="38.03" ry="18"/>
<text xml:space="preserve" text-anchor="middle" x="404.75" y="-113.3" font-family="Helvetica,sans-Serif" font-size="11.00">Revoking</text>
</g>
<!-- Farmer&#45;&gt;Revoking -->
<g id="edge28" class="edge">
<title>Farmer&#45;&gt;Revoking</title>
<path fill="none" stroke="#222222" d="M733.17,-905.29C803.3,-899.93 983.75,-875.27 983.75,-763.25 983.75,-763.25 983.75,-763.25 983.75,-193.75 983.75,-138.81 547.04,-143.48 492.75,-135 477.98,-132.69 461.91,-129.72 447.58,-126.91"/>
<ellipse fill="#222222" stroke="#222222" cx="443.33" cy="-126.07" rx="4" ry="4"/>
<text xml:space="preserve" text-anchor="middle" x="997.62" y="-487.4" font-family="Helvetica,sans-Serif" font-size="8.00">handles</text>
</g>
<!-- Standing -->
<g id="node16" class="node">
<title>Standing</title>
<polygon fill="#fce4ec" stroke="black" points="453.25,-375 338.25,-375 338.25,-339 453.25,-339 453.25,-375"/>
<text xml:space="preserve" text-anchor="middle" x="395.75" y="-353.3" font-family="Helvetica,sans-Serif" font-size="11.00">Standing Permission</text>
</g>
<!-- Farmer&#45;&gt;Standing -->
<g id="edge37" class="edge">
<title>Farmer&#45;&gt;Standing</title>
<path fill="none" stroke="#222222" d="M678.28,-903.92C609.42,-896.78 430.7,-877.81 371.75,-867.5 337.58,-861.52 317.31,-876.92 295.75,-849.75 245.13,-785.94 246.47,-729.78 297.75,-666.5 317.03,-642.71 335.85,-660.61 364.75,-650.5 409.47,-634.84 725.35,-509.24 750.75,-469.25 838.78,-330.66 592.16,-406.44 467.75,-381.75 462.41,-380.69 456.92,-379.35 451.46,-377.85"/>
<ellipse fill="#222222" stroke="#222222" cx="447.27" cy="-376.64" rx="4" ry="4"/>
<text xml:space="preserve" text-anchor="middle" x="563.83" y="-604.02" font-family="Helvetica,sans-Serif" font-size="8.00">draws · pauses · revokes</text>
</g>
<!-- Refusing -->
<g id="node18" class="node">
<title>Refusing</title>
<ellipse fill="#bbdefb" stroke="black" cx="699.75" cy="-451.25" rx="36.62" ry="18"/>
<text xml:space="preserve" text-anchor="middle" x="699.75" y="-447.55" font-family="Helvetica,sans-Serif" font-size="11.00">Refusing</text>
</g>
<!-- Farmer&#45;&gt;Refusing -->
<g id="edge27" class="edge">
<title>Farmer&#45;&gt;Refusing</title>
<path fill="none" stroke="#222222" d="M719.75,-889.37C739.12,-863.5 771.75,-812.61 771.75,-763.25 771.75,-763.25 771.75,-763.25 771.75,-528 771.75,-503.01 750.91,-482.98 731.66,-469.81"/>
<ellipse fill="#222222" stroke="#222222" cx="727.9" cy="-467.38" rx="4" ry="4"/>
<text xml:space="preserve" text-anchor="middle" x="785.62" y="-642.9" font-family="Helvetica,sans-Serif" font-size="8.00">handles</text>
</g>
<!-- Gemini -->
<g id="node2" class="node">
<title>Gemini</title>
<polygon fill="#f3e5f5" stroke="black" stroke-dasharray="5,2" points="467,-932 332.5,-932 332.5,-883.5 467,-883.5 467,-932"/>
<text xml:space="preserve" text-anchor="middle" x="399.75" y="-917.55" font-family="Helvetica,sans-Serif" font-size="11.00">Vertex AI Gemini</text>
<text xml:space="preserve" text-anchor="middle" x="399.75" y="-904.05" font-family="Helvetica,sans-Serif" font-size="11.00">(environmental)</text>
<text xml:space="preserve" text-anchor="middle" x="399.75" y="-890.55" font-family="Helvetica,sans-Serif" font-size="11.00">plain talk in farmer locale</text>
</g>
<!-- Gemini&#45;&gt;Capturing -->
<g id="edge29" class="edge">
<title>Gemini&#45;&gt;Capturing</title>
<path fill="none" stroke="#222222" d="M388.21,-883.32C385.85,-878.16 383.49,-872.69 381.5,-867.5 371.44,-841.21 362.35,-810.28 356.5,-788.97"/>
<ellipse fill="none" stroke="#222222" cx="355.38" cy="-784.81" rx="4" ry="4"/>
<text xml:space="preserve" text-anchor="middle" x="396.12" y="-859.9" font-family="Helvetica,sans-Serif" font-size="8.00">requires</text>
</g>
<!-- Gemini&#45;&gt;Consenting -->
<g id="edge30" class="edge">
<title>Gemini&#45;&gt;Consenting</title>
<path fill="none" stroke="#222222" d="M408.59,-883.26C418.37,-855.15 432.75,-806.45 432.75,-763.25 432.75,-763.25 432.75,-763.25 432.75,-528 432.75,-509.51 441.28,-490.53 449.8,-476.2"/>
<ellipse fill="none" stroke="#222222" cx="452.08" cy="-472.56" rx="4" ry="4"/>
<text xml:space="preserve" text-anchor="middle" x="447.38" y="-642.9" font-family="Helvetica,sans-Serif" font-size="8.00">requires</text>
</g>
<!-- RulePack -->
<g id="node3" class="node">
<title>RulePack</title>
<polygon fill="#e3f2fd" stroke="black" points="240.5,-925.75 175,-925.75 175,-889.75 240.5,-889.75 240.5,-925.75"/>
<text xml:space="preserve" text-anchor="middle" x="207.75" y="-904.05" font-family="Helvetica,sans-Serif" font-size="11.00">Rule Pack</text>
</g>
<!-- Compiling -->
<g id="node7" class="node">
<title>Compiling</title>
<ellipse fill="#bbdefb" stroke="black" cx="327.75" cy="-606.75" rx="39.9" ry="18"/>
<text xml:space="preserve" text-anchor="middle" x="327.75" y="-603.05" font-family="Helvetica,sans-Serif" font-size="11.00">Compiling</text>
</g>
<!-- RulePack&#45;&gt;Compiling -->
<g id="edge31" class="edge">
<title>RulePack&#45;&gt;Compiling</title>
<path fill="none" stroke="#222222" d="M204.76,-889.35C199.65,-855.5 191.5,-778.82 210.5,-718.5 223.74,-676.45 265.04,-644.24 294.88,-625.66"/>
<ellipse fill="none" stroke="#222222" cx="298.72" cy="-623.34" rx="4" ry="4"/>
<text xml:space="preserve" text-anchor="middle" x="225.12" y="-720.65" font-family="Helvetica,sans-Serif" font-size="8.00">requires</text>
</g>
<!-- Partner -->
<g id="node4" class="node">
<title>Partner</title>
<polygon fill="#fff8e1" stroke="black" points="113.5,-925.75 0,-925.75 0,-889.75 113.5,-889.75 113.5,-925.75"/>
<text xml:space="preserve" text-anchor="middle" x="56.75" y="-904.05" font-family="Helvetica,sans-Serif" font-size="11.00">Value Chain Partner</text>
</g>
<!-- Delivering -->
<g id="node11" class="node">
<title>Delivering</title>
<ellipse fill="#bbdefb" stroke="black" cx="350.75" cy="-272.5" rx="39.9" ry="18"/>
<text xml:space="preserve" text-anchor="middle" x="350.75" y="-268.8" font-family="Helvetica,sans-Serif" font-size="11.00">Delivering</text>
</g>
<!-- Partner&#45;&gt;Delivering -->
<g id="edge32" class="edge">
<title>Partner&#45;&gt;Delivering</title>
<path fill="none" stroke="#222222" d="M50.07,-889.37C40.43,-862.67 23.75,-809.77 23.75,-763.25 23.75,-763.25 23.75,-763.25 23.75,-356 23.75,-299.27 211.15,-281.15 302.21,-275.7"/>
<ellipse fill="none" stroke="#222222" cx="306.49" cy="-275.45" rx="4" ry="4"/>
<text xml:space="preserve" text-anchor="middle" x="38.38" y="-565.15" font-family="Helvetica,sans-Serif" font-size="8.00">requires</text>
</g>
<!-- Requesting -->
<g id="node24" class="node">
<title>Requesting</title>
<ellipse fill="#fff8e1" stroke="black" cx="113.75" cy="-762.25" rx="44.1" ry="18"/>
<text xml:space="preserve" text-anchor="middle" x="113.75" y="-758.55" font-family="Helvetica,sans-Serif" font-size="11.00">Requesting</text>
</g>
<!-- Partner&#45;&gt;Requesting -->
<g id="edge33" class="edge">
<title>Partner&#45;&gt;Requesting</title>
<path fill="none" stroke="#222222" d="M63.63,-889.44C73.65,-864.2 92.34,-817.16 103.84,-788.19"/>
<ellipse fill="#222222" stroke="#222222" cx="105.37" cy="-784.35" rx="4" ry="4"/>
<text xml:space="preserve" text-anchor="middle" x="89.06" y="-859.9" font-family="Helvetica,sans-Serif" font-size="8.00">handles</text>
</g>
<!-- Event -->
<g id="node6" class="node">
<title>Event</title>
<polygon fill="#ffffff" stroke="black" points="384.88,-702.5 312.62,-702.5 312.62,-666.5 384.88,-666.5 384.88,-702.5"/>
<text xml:space="preserve" text-anchor="middle" x="348.75" y="-680.8" font-family="Helvetica,sans-Serif" font-size="11.00">Farm Event</text>
</g>
<!-- Capturing&#45;&gt;Event -->
<g id="edge1" class="edge">
<title>Capturing&#45;&gt;Event</title>
<path fill="none" stroke="#222222" d="M349.52,-744.06C349.41,-735.21 349.26,-724.19 349.13,-714.11"/>
<polygon fill="#222222" stroke="#222222" points="352.63,-714.35 349,-704.39 345.63,-714.44 352.63,-714.35"/>
<text xml:space="preserve" text-anchor="middle" x="359.06" y="-720.65" font-family="Helvetica,sans-Serif" font-size="8.00">yields</text>
</g>
<!-- Event&#45;&gt;Compiling -->
<g id="edge2" class="edge">
<title>Event&#45;&gt;Compiling</title>
<path fill="none" stroke="#222222" d="M343.98,-666.31C341.49,-657.3 338.37,-646.04 335.53,-635.81"/>
<polygon fill="#222222" stroke="#222222" points="338.95,-635.03 332.9,-626.33 332.2,-636.9 338.95,-635.03"/>
<text xml:space="preserve" text-anchor="middle" x="357.51" y="-642.9" font-family="Helvetica,sans-Serif" font-size="8.00">consumes</text>
</g>
<!-- Pack -->
<g id="node8" class="node">
<title>Pack</title>
<polygon fill="#ffffff" stroke="black" points="382.88,-547 310.62,-547 310.62,-511 382.88,-511 382.88,-547"/>
<text xml:space="preserve" text-anchor="middle" x="346.75" y="-525.3" font-family="Helvetica,sans-Serif" font-size="11.00">Share Pack</text>
</g>
<!-- Compiling&#45;&gt;Pack -->
<g id="edge3" class="edge">
<title>Compiling&#45;&gt;Pack</title>
<path fill="none" stroke="#222222" d="M332.06,-588.56C334.3,-579.61 337.1,-568.45 339.66,-558.28"/>
<polygon fill="#222222" stroke="#222222" points="342.98,-559.4 342.02,-548.85 336.19,-557.7 342.98,-559.4"/>
<text xml:space="preserve" text-anchor="middle" x="348.14" y="-565.15" font-family="Helvetica,sans-Serif" font-size="8.00">yields</text>
</g>
<!-- Pack&#45;&gt;Consenting -->
<g id="edge4" class="edge">
<title>Pack&#45;&gt;Consenting</title>
<path fill="none" stroke="#222222" d="M357.59,-510.76C363.73,-502.14 372.06,-492.11 381.5,-485.25 393.51,-476.51 408.13,-469.75 421.85,-464.69"/>
<ellipse fill="none" stroke="#222222" cx="426" cy="-463.25" rx="4" ry="4"/>
<text xml:space="preserve" text-anchor="middle" x="396.12" y="-487.4" font-family="Helvetica,sans-Serif" font-size="8.00">requires</text>
</g>
<!-- Deciding -->
<g id="node15" class="node">
<title>Deciding</title>
<ellipse fill="#f8bbd0" stroke="black" stroke-width="2" cx="766.75" cy="-357" rx="83.97" ry="24.75"/>
<text xml:space="preserve" text-anchor="middle" x="766.75" y="-360.05" font-family="Helvetica,sans-Serif" font-size="11.00">Deciding</text>
<text xml:space="preserve" text-anchor="middle" x="766.75" y="-346.55" font-family="Helvetica,sans-Serif" font-size="11.00">(in&#45;zoomed in SD1.2)</text>
</g>
<!-- Pack&#45;&gt;Deciding -->
<g id="edge22" class="edge">
<title>Pack&#45;&gt;Deciding</title>
<path fill="none" stroke="#222222" d="M383.12,-512.31C389.78,-507.73 395.86,-502.01 399.75,-495 401.85,-491.21 401.68,-489.13 399.75,-485.25 394.47,-474.67 383.78,-479.83 378.5,-469.25 371.36,-454.93 367.75,-445.1 378.5,-433.25 403.14,-406.09 512.42,-437.86 542.75,-417.25 550.8,-411.77 544.81,-403.38 552.75,-397.75 595.2,-367.64 617.62,-391.44 668.75,-381.75 677.42,-380.1 686.47,-378.19 695.42,-376.17"/>
<ellipse fill="none" stroke="#222222" cx="699.57" cy="-375.21" rx="4" ry="4"/>
<text xml:space="preserve" text-anchor="middle" x="393.12" y="-448.52" font-family="Helvetica,sans-Serif" font-size="8.00">requires</text>
</g>
<!-- Consent -->
<g id="node10" class="node">
<title>Consent</title>
<polygon fill="#ffffff" stroke="black" points="309,-375 252.5,-375 252.5,-339 309,-339 309,-375"/>
<text xml:space="preserve" text-anchor="middle" x="280.75" y="-353.3" font-family="Helvetica,sans-Serif" font-size="11.00">Consent</text>
</g>
<!-- Consenting&#45;&gt;Consent -->
<g id="edge5" class="edge">
<title>Consenting&#45;&gt;Consent</title>
<path fill="none" stroke="#222222" d="M430.11,-440.75C420.56,-438.29 410.27,-435.65 400.75,-433.25 372.12,-426.01 361.72,-432.19 336.25,-417.25 322.15,-408.97 309.43,-396.03 299.74,-384.36"/>
<polygon fill="#222222" stroke="#222222" points="302.53,-382.24 293.59,-376.56 297.04,-386.58 302.53,-382.24"/>
<text xml:space="preserve" text-anchor="middle" x="346" y="-404.77" font-family="Helvetica,sans-Serif" font-size="8.00">yields</text>
</g>
<!-- Consenting&#45;&gt;Standing -->
<g id="edge20" class="edge">
<title>Consenting&#45;&gt;Standing</title>
<path fill="none" stroke="#222222" stroke-dasharray="5,2" d="M430.58,-440.5C403.67,-432.89 370.95,-422.72 367,-417.25 359.75,-407.21 363.78,-395.07 370.84,-384.39"/>
<polygon fill="#222222" stroke="#222222" points="373.43,-386.76 376.7,-376.68 367.86,-382.52 373.43,-386.76"/>
<text xml:space="preserve" text-anchor="middle" x="398.88" y="-409.65" font-family="Helvetica,sans-Serif" font-size="8.00">yields on</text>
<text xml:space="preserve" text-anchor="middle" x="398.88" y="-399.9" font-family="Helvetica,sans-Serif" font-size="8.00">&quot;next time do this&quot;</text>
</g>
<!-- ConsentBound -->
<g id="node20" class="node">
<title>ConsentBound</title>
<path fill="#c8e6c9" stroke="black" d="M559.12,-375C559.12,-375 494.38,-375 494.38,-375 488.38,-375 482.38,-369 482.38,-363 482.38,-363 482.38,-351 482.38,-351 482.38,-345 488.38,-339 494.38,-339 494.38,-339 559.12,-339 559.12,-339 565.12,-339 571.12,-345 571.12,-351 571.12,-351 571.12,-363 571.12,-363 571.12,-369 565.12,-375 559.12,-375"/>
<text xml:space="preserve" text-anchor="middle" x="526.75" y="-353.3" font-family="Helvetica,sans-Serif" font-size="11.00">purpose&#45;bound</text>
</g>
<!-- Consenting&#45;&gt;ConsentBound -->
<g id="edge16" class="edge">
<title>Consenting&#45;&gt;ConsentBound</title>
<path fill="none" stroke="#222222" stroke-dasharray="1,5" d="M507.55,-443.81C523.13,-439.15 539.39,-431.11 548.75,-417.25 555.31,-407.53 552.56,-395.6 547.13,-385"/>
<polygon fill="#222222" stroke="#222222" points="550.26,-383.42 542.1,-376.66 544.27,-387.03 550.26,-383.42"/>
<text xml:space="preserve" text-anchor="middle" x="555.95" y="-404.77" font-family="Helvetica,sans-Serif" font-size="8.00">to</text>
</g>
<!-- Consent&#45;&gt;Delivering -->
<g id="edge6" class="edge">
<title>Consent&#45;&gt;Delivering</title>
<path fill="none" stroke="#222222" d="M295.6,-338.5C305.98,-326.26 319.97,-309.78 331.26,-296.48"/>
<ellipse fill="none" stroke="#222222" cx="333.97" cy="-293.28" rx="4" ry="4"/>
<text xml:space="preserve" text-anchor="middle" x="336.64" y="-308.65" font-family="Helvetica,sans-Serif" font-size="8.00">requires</text>
</g>
<!-- ConsentDraft -->
<g id="node19" class="node">
<title>ConsentDraft</title>
<path fill="#fff3e0" stroke="black" d="M294.75,-469.25C294.75,-469.25 264.75,-469.25 264.75,-469.25 258.75,-469.25 252.75,-463.25 252.75,-457.25 252.75,-457.25 252.75,-445.25 252.75,-445.25 252.75,-439.25 258.75,-433.25 264.75,-433.25 264.75,-433.25 294.75,-433.25 294.75,-433.25 300.75,-433.25 306.75,-439.25 306.75,-445.25 306.75,-445.25 306.75,-457.25 306.75,-457.25 306.75,-463.25 300.75,-469.25 294.75,-469.25"/>
<text xml:space="preserve" text-anchor="middle" x="279.75" y="-447.55" font-family="Helvetica,sans-Serif" font-size="11.00">draft</text>
</g>
<!-- Consent&#45;&gt;ConsentDraft -->
<g id="edge11" class="edge">
<title>Consent&#45;&gt;ConsentDraft</title>
<path fill="none" stroke="#222222" stroke-dasharray="5,2" d="M280.56,-375.27C280.38,-391.74 280.12,-416.4 279.94,-432.9"/>
</g>
<!-- Consent&#45;&gt;ConsentBound -->
<g id="edge12" class="edge">
<title>Consent&#45;&gt;ConsentBound</title>
<path fill="none" stroke="#222222" stroke-dasharray="5,2" d="M295.43,-375.43C305.95,-387.07 321.22,-401.08 338.25,-407.5 386.08,-425.52 404.44,-422.65 453.25,-407.5 473.65,-401.16 493.42,-386.98 507.3,-375.26"/>
</g>
<!-- ConsentRefused -->
<g id="node21" class="node">
<title>ConsentRefused</title>
<path fill="#ffe0b2" stroke="black" d="M641.75,-375C641.75,-375 611.75,-375 611.75,-375 605.75,-375 599.75,-369 599.75,-363 599.75,-363 599.75,-351 599.75,-351 599.75,-345 605.75,-339 611.75,-339 611.75,-339 641.75,-339 641.75,-339 647.75,-339 653.75,-345 653.75,-351 653.75,-351 653.75,-363 653.75,-363 653.75,-369 647.75,-375 641.75,-375"/>
<text xml:space="preserve" text-anchor="middle" x="626.75" y="-353.3" font-family="Helvetica,sans-Serif" font-size="11.00">refused</text>
</g>
<!-- Consent&#45;&gt;ConsentRefused -->
<g id="edge13" class="edge">
<title>Consent&#45;&gt;ConsentRefused</title>
<path fill="none" stroke="#222222" stroke-dasharray="5,2" d="M295.43,-375.43C305.95,-387.07 321.22,-401.08 338.25,-407.5 386.7,-425.75 522.96,-426.18 571.25,-407.5 587.89,-401.06 602.62,-387.05 612.71,-375.42"/>
</g>
<!-- ConsentExpired -->
<g id="node22" class="node">
<title>ConsentExpired</title>
<path fill="#e0e0e0" stroke="black" d="M296.75,-66C296.75,-66 266.75,-66 266.75,-66 260.75,-66 254.75,-60 254.75,-54 254.75,-54 254.75,-42 254.75,-42 254.75,-36 260.75,-30 266.75,-30 266.75,-30 296.75,-30 296.75,-30 302.75,-30 308.75,-36 308.75,-42 308.75,-42 308.75,-54 308.75,-54 308.75,-60 302.75,-66 296.75,-66"/>
<text xml:space="preserve" text-anchor="middle" x="281.75" y="-44.3" font-family="Helvetica,sans-Serif" font-size="11.00">expired</text>
</g>
<!-- Consent&#45;&gt;ConsentExpired -->
<g id="edge14" class="edge">
<title>Consent&#45;&gt;ConsentExpired</title>
<path fill="none" stroke="#222222" stroke-dasharray="5,2" d="M279.75,-338.62C278.88,-321.93 277.75,-296 277.75,-273.5 277.75,-273.5 277.75,-273.5 277.75,-116 277.75,-99.1 279.03,-79.85 280.15,-66.34"/>
</g>
<!-- ConsentRevoked -->
<g id="node23" class="node">
<title>ConsentRevoked</title>
<path fill="#ffcdd2" stroke="black" d="M549.88,-135C549.88,-135 519.62,-135 519.62,-135 513.62,-135 507.62,-129 507.62,-123 507.62,-123 507.62,-111 507.62,-111 507.62,-105 513.62,-99 519.62,-99 519.62,-99 549.88,-99 549.88,-99 555.88,-99 561.88,-105 561.88,-111 561.88,-111 561.88,-123 561.88,-123 561.88,-129 555.88,-135 549.88,-135"/>
<text xml:space="preserve" text-anchor="middle" x="534.75" y="-113.3" font-family="Helvetica,sans-Serif" font-size="11.00">revoked</text>
</g>
<!-- Consent&#45;&gt;ConsentRevoked -->
<g id="edge15" class="edge">
<title>Consent&#45;&gt;ConsentRevoked</title>
<path fill="none" stroke="#222222" stroke-dasharray="5,2" d="M309.27,-339.85C314.07,-337.25 319.03,-334.63 323.75,-332.25 414.86,-286.35 464.98,-298.83 519.75,-212.75 534.86,-189 536.56,-155.32 535.97,-135.16"/>
</g>
<!-- Token -->
<g id="node12" class="node">
<title>Token</title>
<polygon fill="#ffffff" stroke="black" points="504.75,-212.75 422.75,-212.75 422.75,-176.75 504.75,-176.75 504.75,-212.75"/>
<text xml:space="preserve" text-anchor="middle" x="463.75" y="-191.05" font-family="Helvetica,sans-Serif" font-size="11.00">Access Token</text>
</g>
<!-- Delivering&#45;&gt;Token -->
<g id="edge7" class="edge">
<title>Delivering&#45;&gt;Token</title>
<path fill="none" stroke="#222222" d="M372.27,-257.07C388.12,-246.45 410.02,-231.77 428.43,-219.43"/>
<polygon fill="#222222" stroke="#222222" points="430.34,-222.36 436.69,-213.89 426.44,-216.55 430.34,-222.36"/>
<text xml:space="preserve" text-anchor="middle" x="423.77" y="-230.9" font-family="Helvetica,sans-Serif" font-size="8.00">yields</text>
</g>
<!-- Receipt -->
<g id="node13" class="node">
<title>Receipt</title>
<polygon fill="#ffffff" stroke="black" points="393.25,-212.75 308.25,-212.75 308.25,-176.75 393.25,-176.75 393.25,-212.75"/>
<text xml:space="preserve" text-anchor="middle" x="350.75" y="-191.05" font-family="Helvetica,sans-Serif" font-size="11.00">Share Receipt</text>
</g>
<!-- Delivering&#45;&gt;Receipt -->
<g id="edge8" class="edge">
<title>Delivering&#45;&gt;Receipt</title>
<path fill="none" stroke="#222222" d="M350.75,-254.31C350.75,-245.46 350.75,-234.44 350.75,-224.36"/>
<polygon fill="#222222" stroke="#222222" points="354.25,-224.65 350.75,-214.65 347.25,-224.65 354.25,-224.65"/>
<text xml:space="preserve" text-anchor="middle" x="360.5" y="-230.9" font-family="Helvetica,sans-Serif" font-size="8.00">yields</text>
</g>
<!-- Receipt&#45;&gt;Revoking -->
<g id="edge9" class="edge">
<title>Receipt&#45;&gt;Revoking</title>
<path fill="none" stroke="#222222" d="M363,-176.56C370.35,-166.25 379.81,-152.98 387.86,-141.69"/>
<ellipse fill="none" stroke="#222222" cx="390.3" cy="-138.26" rx="4" ry="4"/>
<text xml:space="preserve" text-anchor="middle" x="395.61" y="-153.15" font-family="Helvetica,sans-Serif" font-size="8.00">requires</text>
</g>
<!-- Expiring -->
<g id="node17" class="node">
<title>Expiring</title>
<ellipse fill="#bbdefb" stroke="black" cx="402.75" cy="-48" rx="34.29" ry="18"/>
<text xml:space="preserve" text-anchor="middle" x="402.75" y="-44.3" font-family="Helvetica,sans-Serif" font-size="11.00">Expiring</text>
</g>
<!-- Revoking&#45;&gt;Expiring -->
<!-- Revoking&#45;&gt;ConsentRevoked -->
<g id="edge19" class="edge">
<title>Revoking&#45;&gt;ConsentRevoked</title>
<path fill="none" stroke="#222222" stroke-dasharray="1,5" d="M443.05,-117C459.85,-117 479.52,-117 496.33,-117"/>
<polygon fill="#222222" stroke="#222222" points="495.92,-120.5 505.92,-117 495.92,-113.5 495.92,-120.5"/>
<text xml:space="preserve" text-anchor="middle" x="475.2" y="-122.15" font-family="Helvetica,sans-Serif" font-size="8.00">to</text>
</g>
<!-- Deciding&#45;&gt;Consenting -->
<g id="edge24" class="edge">
<title>Deciding&#45;&gt;Consenting</title>
<path fill="none" stroke="#222222" stroke-dasharray="5,2" d="M704.84,-374.58C692.93,-377.32 680.51,-379.88 668.75,-381.75 646.24,-385.33 479.72,-381.01 464.25,-397.75 458.31,-404.18 457.17,-413.16 458.07,-421.88"/>
<polygon fill="#222222" stroke="#222222" points="454.59,-422.31 459.91,-431.47 461.46,-420.99 454.59,-422.31"/>
<text xml:space="preserve" text-anchor="middle" x="484.5" y="-404.77" font-family="Helvetica,sans-Serif" font-size="8.00">ask_farmer</text>
</g>
<!-- Deciding&#45;&gt;Delivering -->
<g id="edge23" class="edge">
<title>Deciding&#45;&gt;Delivering</title>
<path fill="none" stroke="#222222" d="M703.08,-340.03C691.67,-337.32 679.88,-334.62 668.75,-332.25 573.38,-311.9 461.04,-292.12 398.66,-281.5"/>
<polygon fill="#222222" stroke="#222222" points="399.54,-278.1 389.1,-279.88 398.37,-285.01 399.54,-278.1"/>
<text xml:space="preserve" text-anchor="middle" x="603.45" y="-308.65" font-family="Helvetica,sans-Serif" font-size="8.00">auto_deliver</text>
</g>
<!-- Standing&#45;&gt;Deciding -->
<g id="edge21" class="edge">
<title>Standing&#45;&gt;Deciding</title>
<path fill="none" stroke="#222222" d="M431.08,-375.4C453.61,-386.07 483.79,-398.45 512.12,-403.96 579.01,-416.94 655.94,-398.09 707.59,-380.55"/>
<ellipse fill="none" stroke="#222222" cx="711.72" cy="-379.12" rx="4" ry="4"/>
<text xml:space="preserve" text-anchor="middle" x="526.75" y="-404.77" font-family="Helvetica,sans-Serif" font-size="8.00">requires</text>
</g>
<!-- Expiring&#45;&gt;ConsentExpired -->
<g id="edge18" class="edge">
<title>Expiring&#45;&gt;ConsentExpired</title>
<path fill="none" stroke="#222222" stroke-dasharray="1,5" d="M368.03,-48C353.14,-48 335.7,-48 320.4,-48"/>
<polygon fill="#222222" stroke="#222222" points="320.72,-44.5 310.72,-48 320.72,-51.5 320.72,-44.5"/>
<text xml:space="preserve" text-anchor="middle" x="338.61" y="-53.15" font-family="Helvetica,sans-Serif" font-size="8.00">to</text>
</g>
<!-- Refusing&#45;&gt;ConsentRefused -->
<g id="edge17" class="edge">
<title>Refusing&#45;&gt;ConsentRefused</title>
<path fill="none" stroke="#222222" stroke-dasharray="1,5" d="M687.03,-434.18C676.18,-420.46 660.34,-400.45 647.63,-384.38"/>
<polygon fill="#222222" stroke="#222222" points="650.45,-382.31 641.5,-376.64 644.96,-386.65 650.45,-382.31"/>
<text xml:space="preserve" text-anchor="middle" x="675.31" y="-404.77" font-family="Helvetica,sans-Serif" font-size="8.00">to</text>
</g>
<!-- Request -->
<g id="node25" class="node">
<title>Request</title>
<polygon fill="#fff8e1" stroke="black" points="163.5,-702.5 68,-702.5 68,-666.5 163.5,-666.5 163.5,-702.5"/>
<text xml:space="preserve" text-anchor="middle" x="115.75" y="-680.8" font-family="Helvetica,sans-Serif" font-size="11.00">Partner Request</text>
</g>
<!-- Requesting&#45;&gt;Request -->
<g id="edge34" class="edge">
<title>Requesting&#45;&gt;Request</title>
<path fill="none" stroke="#222222" d="M114.2,-744.06C114.44,-735.21 114.73,-724.19 114.99,-714.11"/>
<polygon fill="#222222" stroke="#222222" points="118.49,-714.48 115.25,-704.39 111.49,-714.3 118.49,-714.48"/>
<text xml:space="preserve" text-anchor="middle" x="124.62" y="-720.65" font-family="Helvetica,sans-Serif" font-size="8.00">yields</text>
</g>
<!-- Request&#45;&gt;Consenting -->
<g id="edge35" class="edge">
<title>Request&#45;&gt;Consenting</title>
<path fill="none" stroke="#222222" d="M163.98,-674.64C182.59,-671.55 204.1,-668.39 223.75,-666.5 248.37,-664.13 651.57,-668.3 668.75,-650.5 676.78,-642.18 787.53,-627.48 661.75,-485.25 643.72,-464.86 573.26,-457.07 522.21,-454.09"/>
<polygon fill="#222222" stroke="#222222" points="522.67,-450.61 512.5,-453.57 522.3,-457.6 522.67,-450.61"/>
<text xml:space="preserve" text-anchor="middle" x="735.36" y="-565.15" font-family="Helvetica,sans-Serif" font-size="8.00">consumes</text>
</g>
<!-- Request&#45;&gt;Deciding -->
<g id="edge36" class="edge">
<title>Request&#45;&gt;Deciding</title>
<path fill="none" stroke="#222222" d="M163.98,-674.61C182.59,-671.52 204.1,-668.37 223.75,-666.5 276.54,-661.48 650.32,-666.9 700.75,-650.5 778.01,-625.36 858.59,-586.72 910.75,-469.25 923.8,-439.86 922.6,-420.37 899.75,-397.75 887.39,-385.51 871.42,-377.01 854.87,-371.12"/>
<polygon fill="#222222" stroke="#222222" points="855.97,-367.8 845.38,-368.07 853.83,-374.46 855.97,-367.8"/>
<text xml:space="preserve" text-anchor="middle" x="907.14" y="-526.27" font-family="Helvetica,sans-Serif" font-size="8.00">consumes</text>
</g>
</g>
</svg>
